<svg width="96" height="96" viewBox="0 0 96 96" fill="none" xmlns="http://www.w3.org/2000/svg">
  <circle cx="48" cy="48" r="44" fill="#0F172A"/>
  <path
    d="M20 49C26.5 36.5 39.5 30 54 32.5C66 34.5 75.5 43.5 79 56"
    stroke="#A7F3D0"
    stroke-width="4"
    stroke-linecap="round"
  />
  <path
    d="M19 40.5C29.5 37.5 41.5 38.5 52 44"
    stroke="#334155"
    stroke-width="3"
    stroke-linecap="round"
  />
  <path
    d="M51 20C58 30 61 43.5 59.5 56.5"
    stroke="#334155"
    stroke-width="3"
    stroke-linecap="round"
  />
  <path
    d="M30.5 71C38 61.5 49 55.5 61 54"
    stroke="#334155"
    stroke-width="3"
    stroke-linecap="round"
  />
  <path
    d="M17 53.5C22 52.5 26 51.5 30 53.5C33.5 55 36 58.5 38.5 62C41 65.5 44.5 69 49.5 70C54.5 71 59.5 69.5 63.5 66.5C67.5 63.5 70.5 59 74.5 56C78 53.5 82 52.5 87 53"
    stroke="#5EEAD4"
    stroke-width="4"
    stroke-linecap="round"
    stroke-linejoin="round"
  />
</svg>
